<?xml version="1.0" standalone="no"?><!DOCTYPE svg PUBLIC "-//W3C//DTD SVG 1.1//EN" "http://www.w3.org/Graphics/SVG/1.1/DTD/svg11.dtd"><svg t="1748918517436" class="icon" viewBox="0 0 1024 1024" version="1.1" xmlns="http://www.w3.org/2000/svg" p-id="30116" xmlns:xlink="http://www.w3.org/1999/xlink" width="200" height="200"><path d="M863.788 140.569h-40.425v-12.007c0-36.003-29.32-65.436-65.147-65.436h-0.96c-35.83 0-65.145 29.434-65.145 65.436v12.007H331.83v-12.007c0-36.003-29.314-65.436-65.144-65.436h-0.991c-35.831 0-65.148 29.434-65.148 65.436v12.007h-40.334c-35.83 0-65.147 29.463-65.147 65.413v625.572c0 36.004 29.315 65.436 65.147 65.436h703.574c35.828 0 65.143-29.433 65.143-65.436v-625.57c0-35.952-29.315-65.415-65.143-65.415z m-145.62-12.007c0-21.64 17.508-39.26 39.086-39.26h0.962c21.549 0 39.083 17.62 39.083 39.26v116.39c0 21.636-17.535 39.26-39.083 39.26h-0.962c-21.578 0-39.086-17.624-39.086-39.26v-116.39z m-491.557 0c0-21.64 17.505-39.26 39.09-39.26h0.986c21.525 0 39.085 17.62 39.085 39.26v116.39c0 21.636-17.565 39.26-39.085 39.26h-0.986c-21.585 0-39.09-17.624-39.09-39.26v-116.39zM863.788 844.67H160.214c-7.065 0-13.03-6.076-13.03-13.114v-459.95H876.82v459.95c-0.006 7.038-5.965 13.114-13.033 13.114zM661.766 702.843" p-id="30117"></path></svg>